HIERARCHY
ROOT root
{
	OFFSET 0.000000 0.000000 0.000000
	CHANNELS 6 Xposition Yposition Zposition Zrotation Yrotation Xrotation
	JOINT lhip
	{
		OFFSET 0.058581 -0.082280 -0.017664
		CHANNELS 3 Zrotation Yrotation Xrotation
		JOINT lknee
		{
			OFFSET 0.043451 -0.386469 0.008037
			CHANNELS 3 Zrotation Yrotation Xrotation
			JOINT lankle
			{
				OFFSET -0.014790 -0.426874 -0.037428
				CHANNELS 3 Zrotation Yrotation Xrotation
				JOINT ltoe
				{
					OFFSET 0.041054 -0.060286 0.122042
					CHANNELS 3 Zrotation Yrotation Xrotation
					End Site
					{
						OFFSET 0.000000 0.000000 0.000000
					}
				}
			}
		}
	}
	JOINT rhip
	{
		OFFSET -0.060310 -0.090513 -0.013543
		CHANNELS 3 Zrotation Yrotation Xrotation
		JOINT rknee
		{
			OFFSET -0.043257 -0.383688 -0.004843
			CHANNELS 3 Zrotation Yrotation Xrotation
			JOINT rankle
			{
				OFFSET 0.019056 -0.420046 -0.034562
				CHANNELS 3 Zrotation Yrotation Xrotation
				JOINT rtoe
				{
					OFFSET -0.034840 -0.062106 0.130323
					CHANNELS 3 Zrotation Yrotation Xrotation
					End Site
					{
						OFFSET 0.000000 0.000000 0.000000
					}
				}
			}
		}
	}
	JOINT lowerback
	{
		OFFSET 0.004439 0.124404 -0.038385
		CHANNELS 3 Zrotation Yrotation Xrotation
		JOINT upperback
		{
			OFFSET 0.004488 0.137956 0.026820
			CHANNELS 3 Zrotation Yrotation Xrotation
			JOINT chest
			{
				OFFSET -0.002265 0.056032 0.002855
				CHANNELS 3 Zrotation Yrotation Xrotation
				JOINT lowerneck
				{
					OFFSET -0.013390 0.211636 -0.033468
					CHANNELS 3 Zrotation Yrotation Xrotation
					JOINT upperneck
					{
						OFFSET 0.010113 0.088937 0.050410
						CHANNELS 3 Zrotation Yrotation Xrotation
						End Site
						{
							OFFSET 0.000000 0.000000 0.000000
						}
					}
				}
				JOINT lclavicle
				{
					OFFSET 0.071702 0.114000 -0.018898
					CHANNELS 3 Zrotation Yrotation Xrotation
					JOINT lshoulder
					{
						OFFSET 0.122921 0.045205 -0.019046
						CHANNELS 3 Zrotation Yrotation Xrotation
						JOINT lelbow
						{
							OFFSET 0.255332 -0.015649 -0.022946
							CHANNELS 3 Zrotation Yrotation Xrotation
							JOINT lwrist
							{
								OFFSET 0.265709 0.012698 -0.007375
								CHANNELS 3 Zrotation Yrotation Xrotation
								End Site
								{
									OFFSET 0.000000 0.000000 0.000000
								}
							}
						}
					}
				}
				JOINT rclavicle
				{
					OFFSET -0.082954 0.112472 -0.023707
					CHANNELS 3 Zrotation Yrotation Xrotation
					JOINT rshoulder
					{
						OFFSET -0.113228 0.046853 -0.008472
						CHANNELS 3 Zrotation Yrotation Xrotation
						JOINT relbow
						{
							OFFSET -0.260127 -0.014369 -0.031269
							CHANNELS 3 Zrotation Yrotation Xrotation
							JOINT rwrist
							{
								OFFSET -0.269108 0.006794 -0.006027
								CHANNELS 3 Zrotation Yrotation Xrotation
								End Site
								{
									OFFSET 0.000000 0.000000 0.000000
								}
							}
						}
					}
				}
			}
		}
	}
}
MOTION
Frames: 8
Frame Time: 0.033333
0.080331 0.768038 0.974393 18.031107 -0.596370 75.071090 -9.786168 -5.338044 10.257918 -4.789932 -12.876551 24.343207 10.020480 16.560931 -22.679766 0.000000 -0.000000 0.000000 -6.428990 -4.503570 -6.757304 -3.151989 -6.100874 0.643247 11.700002 -15.568049 14.922220 0.000000 -0.000000 0.000000 -7.472663 5.941371 12.508735 -4.073134 -3.293848 10.057997 -1.873771 -0.252983 5.321553 7.683184 -6.375352 5.315792 18.197611 -1.928385 -2.217020 -20.376488 -13.372361 0.172243 -35.584342 -15.495969 6.095622 -1.270359 -22.660232 0.061680 5.113681 -2.732538 5.967451 14.268657 9.476820 5.508574 56.053745 -4.596565 20.675896 -62.932921 80.734010 -43.608256 6.437931 7.852734 -24.359673 
0.079971 0.769849 0.975278 17.596840 -0.610260 75.046144 -9.828315 -5.606321 10.312584 -4.783217 -12.405124 23.976596 10.204949 16.695605 -22.153870 0.000000 -0.000000 0.000000 -6.156850 -4.313158 -7.373842 -3.127708 -6.620754 1.036772 11.156967 -16.465068 15.755207 0.000000 -0.000000 0.000000 -7.834923 5.617878 11.929458 -3.801376 -3.513237 10.377135 -1.692304 -0.718507 5.308710 7.752977 -6.158216 5.515048 17.729765 -0.998453 -2.266798 -20.845758 -13.208122 0.778334 -35.997271 -15.811023 6.311109 -1.052934 -23.681990 -0.508545 5.728476 -2.613414 4.836645 14.674096 9.401467 5.493505 55.609402 -3.514591 21.314627 -62.664880 80.344698 -43.378797 5.795245 7.487945 -22.998616 
0.080385 0.772323 0.977251 16.546186 -0.484114 74.738481 -9.690439 -5.249622 10.894923 -4.542103 -12.054075 23.025248 10.174789 16.706356 -21.527280 0.000000 -0.000000 0.000000 -5.931699 -4.203450 -7.610520 -2.855869 -6.856236 1.306258 11.548493 -16.136419 17.135964 0.000000 -0.000000 0.000000 -7.685923 5.327866 11.860791 -3.670307 -3.592913 10.437002 -1.606402 -0.865570 5.304319 7.849120 -5.609599 5.518841 17.405640 -0.361012 -2.218638 -21.280552 -13.324039 0.931863 -36.660514 -15.850967 6.618506 -0.937354 -23.973227 -0.606540 4.832592 -2.588135 5.117206 14.931973 9.378080 5.408429 55.564707 -2.992714 21.465390 -63.958682 80.219631 -44.830335 6.032283 7.498439 -22.239764 
0.080076 0.775730 0.979561 14.955638 -0.177287 74.524611 -9.055031 -4.390453 11.412646 -4.264512 -11.642165 21.760904 9.947863 16.410701 -21.046351 0.000000 -0.000000 0.000000 -5.424904 -3.745942 -8.085053 -2.781082 -6.133961 2.114421 12.784400 -14.786631 17.808918 0.000000 -0.000000 0.000000 -7.282823 4.968599 12.190296 -3.524105 -3.411160 10.167656 -1.470349 -0.731907 4.967468 7.893064 -5.197929 5.218790 16.840050 -0.083495 -1.715041 -21.769330 -13.355860 0.857851 -37.466030 -15.474783 6.871983 -0.913167 -24.285327 0.541531 3.325896 -2.352686 6.284114 15.159065 9.354254 5.603114 55.530032 -2.729770 21.069643 -66.040352 80.779294 -46.777739 5.890244 7.602949 -22.468607 
0.079109 0.782264 0.983866 12.311290 0.428470 74.406242 -8.169190 -3.259033 11.653687 -3.637878 -11.021299 20.413719 9.284871 16.394799 -20.218331 0.000000 -0.000000 0.000000 -4.365881 -2.659644 -8.834780 -2.740832 -4.750857 5.135163 13.352670 -12.917181 13.047518 0.000000 -0.000000 0.000000 -6.642707 4.404233 12.203067 -3.027443 -3.140331 10.511691 -1.225275 -0.623221 4.699740 8.024008 -3.721846 4.062513 15.577336 0.229077 -1.579773 -22.340602 -13.485527 0.900667 -39.053687 -14.574448 7.447801 -0.625185 -24.616888 1.971309 3.292686 -2.484361 6.988907 15.688711 9.738764 5.908443 54.906226 -1.922710 20.606596 -70.594393 81.778014 -51.085704 4.939439 7.842799 -22.862372 
0.077877 0.786954 0.987112 10.350805 0.842401 74.640135 -7.808947 -2.895614 11.458268 -3.063165 -10.688956 19.513619 9.002358 16.918131 -19.412038 0.000000 -0.000000 0.000000 -3.516678 -1.614985 -9.305848 -2.626033 -4.039187 8.414815 11.449270 -12.665014 6.567874 0.000000 -0.000000 0.000000 -6.250544 3.946032 12.046118 -2.653261 -2.904418 10.637156 -1.005244 -0.538823 4.454948 8.001007 -2.836400 3.670527 14.568509 0.910931 -1.576814 -22.900833 -13.377348 1.011417 -40.072720 -13.645877 7.658918 -0.383916 -24.826182 1.797276 3.688157 -2.185745 6.186697 16.058211 10.199456 6.266175 54.486404 -1.334926 20.485773 -73.588305 82.290918 -53.904951 4.311168 7.825626 -22.437746 
0.076789 0.792219 0.990318 8.349417 1.367614 75.071253 -7.229784 -2.536985 11.127975 -2.420045 -10.081300 18.370169 8.705852 17.183822 -18.614002 0.000000 -0.000000 0.000000 -2.662729 -1.003262 -9.688361 -2.257088 -4.052507 12.315123 9.114396 -12.873793 0.742199 0.000000 -0.000000 0.000000 -5.604708 3.433915 11.784428 -2.305434 -2.692207 10.949976 -0.780589 -0.481290 4.053264 7.835532 -2.124019 3.308159 13.478092 1.700696 -1.610800 -23.288616 -13.055874 0.985069 -41.601740 -12.844657 7.574860 0.097152 -24.494596 1.548706 3.803951 -1.937081 4.858452 16.064790 10.557659 6.484909 54.188418 -0.547449 20.213039 -74.879751 83.104940 -54.626868 3.864664 8.136920 -22.183407 
0.075413 0.797962 0.993599 6.266395 1.738999 75.486352 -6.650588 -2.149749 10.998995 -1.917750 -9.454684 16.798255 8.453952 17.402435 -17.665102 0.000000 -0.000000 0.000000 -1.999158 -0.851094 -9.820156 -2.075179 -4.722611 16.836127 7.516300 -13.274495 -3.119024 0.000000 -0.000000 0.000000 -5.101698 3.069151 11.688876 -2.041660 -2.467501 11.155038 -0.522698 -0.394356 3.602188 7.638710 -1.412205 3.085230 12.475828 2.613446 -1.615470 -23.737031 -12.762255 1.162738 -43.018708 -11.825367 7.263797 0.877003 -24.398893 0.816838 3.229074 -1.570335 4.000972 16.093668 11.035706 6.737497 53.946419 0.146345 20.012555 -77.014012 83.780123 -56.663115 4.199560 8.183552 -21.759973 
